<?xml version="1.0" standalone="no"?>
<!DOCTYPE svg PUBLIC "-//W3C//DTD SVG 20010904//EN"
 "http://www.w3.org/TR/2001/REC-SVG-20010904/DTD/svg10.dtd">
<svg version="1.0" xmlns="http://www.w3.org/2000/svg"
 width="700.000000pt" height="700.000000pt" viewBox="0 0 700.000000 700.000000"
 preserveAspectRatio="xMidYMid meet">
<metadata>
Created by potrace 1.14, written by Peter Selinger 2001-2017
</metadata>
<g transform="translate(0.000000,700.000000) scale(0.100000,-0.100000)"
fill="#000000" stroke="none">
<path d="M3357 6994 c-1 -1 -47 -4 -102 -8 -55 -3 -111 -8 -125 -10 -14 -3
-52 -7 -85 -11 -86 -9 -267 -43 -360 -66 -44 -11 -91 -23 -104 -25 -42 -9
-284 -91 -391 -133 -129 -51 -350 -161 -484 -242 -88 -52 -352 -231 -366 -248
-3 -3 -44 -39 -92 -79 -148 -123 -385 -366 -490 -502 -194 -252 -378 -559
-460 -765 -11 -27 -26 -63 -33 -80 -68 -147 -182 -531 -199 -670 -4 -27 -9
-57 -11 -65 -6 -22 -12 -60 -20 -126 -4 -33 -9 -67 -11 -77 -17 -95 -23 -485
-10 -657 22 -291 80 -575 167 -830 17 -47 31 -92 33 -100 22 -91 209 -476 309
-637 77 -122 197 -290 287 -399 99 -120 363 -382 480 -475 338 -272 718 -481
1110 -609 135 -45 345 -100 430 -115 14 -2 52 -9 85 -14 33 -6 78 -13 100 -15
22 -3 56 -7 75 -10 214 -27 648 -28 810 -2 14 3 48 7 75 11 349 42 744 164
1085 336 443 222 780 489 1132 896 97 113 242 321 332 477 209 362 325 679
421 1146 2 8 8 51 14 95 7 44 14 94 16 110 24 158 23 632 -1 810 -42 319 -118
617 -224 885 -98 247 -247 518 -412 751 -169 237 -435 516 -672 704 -67 53
-258 185 -351 243 -102 63 -358 192 -485 246 -172 71 -498 170 -636 192 -21 3
-41 7 -44 9 -5 3 -186 30 -265 40 -83 10 -520 26 -528 19z m288 -338 c72 -3
148 -7 170 -10 119 -14 213 -27 235 -31 14 -3 39 -8 55 -11 173 -30 468 -122
646 -199 273 -120 585 -312 779 -480 196 -171 354 -336 486 -510 65 -85 200
-286 215 -320 5 -11 19 -36 30 -55 34 -56 123 -238 159 -325 18 -44 39 -93 45
-110 12 -28 73 -213 81 -245 2 -8 11 -44 19 -80 9 -36 19 -76 21 -90 3 -14 9
-41 14 -60 17 -71 45 -275 55 -405 6 -85 6 -381 0 -450 -6 -72 -16 -166 -20
-195 -11 -91 -18 -129 -25 -160 -5 -19 -12 -53 -15 -75 -4 -22 -18 -83 -31
-135 -146 -556 -425 -1042 -829 -1445 -164 -164 -393 -351 -526 -430 -301
-179 -478 -262 -729 -344 -170 -54 -367 -102 -485 -117 -22 -2 -67 -9 -100
-14 -177 -27 -585 -30 -760 -4 -22 3 -53 8 -70 10 -16 2 -41 6 -55 9 -14 2
-41 6 -60 9 -160 23 -521 128 -675 196 -401 179 -712 387 -990 665 -141 140
-164 166 -272 302 -340 427 -570 964 -643 1503 -13 89 -15 110 -25 225 -7 75
-7 381 0 455 2 25 7 76 10 115 9 95 50 318 81 438 97 383 280 769 514 1086
123 167 171 223 325 375 347 344 763 601 1223 755 68 22 135 43 148 45 13 3
27 7 32 10 8 4 119 30 182 42 14 2 45 9 70 14 50 10 93 17 172 26 29 3 64 7
78 10 14 2 86 7 160 10 74 4 136 8 138 9 2 2 11 1 20 -1 9 -2 76 -5 147 -8z"/>
<path d="M3130 5373 c0 -67 3 -93 13 -94 6 0 64 -2 127 -2 l115 -2 3 -361 2
-362 98 2 c53 0 103 5 110 9 9 6 13 30 12 75 -1 37 -1 196 -1 353 l1 286 111
-1 c60 -1 118 2 128 5 15 6 17 19 16 87 0 45 -4 84 -8 89 -5 4 -170 8 -368 8
l-359 0 0 -92z"/>
<path d="M3258 4002 l-36 -3 1 -455 2 -454 107 0 106 0 2 171 c0 95 2 175 5
178 2 4 80 6 174 6 l171 0 0 93 0 93 -162 -1 c-90 -1 -168 -1 -175 -1 -8 1
-11 29 -10 94 l2 92 188 0 c181 0 187 0 188 20 0 11 1 53 2 93 l2 72 -65 1
c-352 3 -470 4 -502 1z"/>
<path d="M3181 2085 l2 -455 86 -1 c82 -1 123 0 128 5 2 1 3 77 4 169 l0 167
47 1 c98 1 177 9 211 20 137 44 199 118 208 245 10 139 -46 227 -177 278 -37
15 -87 19 -278 22 l-233 5 2 -456z m417 258 c58 -28 69 -103 24 -154 -28 -32
-30 -32 -123 -33 l-94 -1 -3 103 -3 103 85 -2 c49 -1 97 -8 114 -16z"/>
</g>
</svg>
