<?xml version="1.0" standalone="no"?>
<!DOCTYPE svg PUBLIC "-//W3C//DTD SVG 20010904//EN"
 "http://www.w3.org/TR/2001/REC-SVG-20010904/DTD/svg10.dtd">
<svg version="1.0" xmlns="http://www.w3.org/2000/svg"
 width="1536.000000pt" height="1536.000000pt" viewBox="0 0 1536.000000 1536.000000"
 preserveAspectRatio="xMidYMid meet">

<g transform="translate(0.000000,1536.000000) scale(0.100000,-0.100000)"
fill="#000000" stroke="none">
<path d="M7335 15344 c-542 -30 -1039 -103 -1530 -225 -88 -22 -180 -46 -205
-54 -25 -7 -85 -25 -135 -40 -294 -88 -643 -218 -955 -357 -215 -96 -679 -344
-870 -466 -532 -338 -924 -648 -1333 -1051 -647 -638 -1127 -1304 -1528 -2118
-60 -122 -109 -224 -109 -228 0 -3 -11 -31 -25 -61 -44 -97 -151 -366 -199
-501 -369 -1044 -505 -2139 -406 -3271 11 -131 22 -244 25 -252 2 -8 11 -71
20 -140 59 -457 221 -1097 400 -1575 562 -1505 1573 -2790 2900 -3687 831
-562 1745 -948 2725 -1153 622 -130 1345 -188 1913 -155 580 34 996 94 1497
217 1544 376 2955 1248 3996 2469 238 279 495 626 649 876 174 283 258 433
371 658 270 540 457 1048 598 1620 48 196 117 548 136 690 6 47 17 130 25 185
42 300 66 823 54 1176 -7 204 -29 530 -44 654 -166 1351 -635 2553 -1419 3635
-335 462 -764 926 -1216 1315 -379 327 -828 639 -1276 888 -102 57 -460 238
-544 275 -292 129 -593 244 -810 311 -58 18 -123 38 -145 46 -56 19 -196 57
-360 98 -384 97 -805 166 -1235 202 -175 15 -807 27 -965 19z m700 -734 c1578
-83 3041 -678 4230 -1721 212 -185 542 -520 690 -700 17 -20 62 -74 100 -120
103 -122 189 -236 296 -389 89 -127 113 -164 201 -300 243 -379 467 -830 636
-1280 463 -1232 558 -2642 267 -3938 -128 -572 -293 -1036 -555 -1567 -480
-970 -1162 -1792 -2040 -2461 -58 -44 -143 -107 -190 -139 -47 -32 -105 -73
-130 -90 -330 -228 -913 -535 -1290 -679 -52 -20 -106 -42 -120 -48 -45 -19
-373 -128 -492 -163 -1265 -372 -2651 -372 -3916 0 -119 35 -447 144 -492 163
-14 6 -66 27 -115 46 -482 184 -1092 522 -1535 850 -636 470 -1134 982 -1616
1661 -311 437 -638 1079 -834 1635 -387 1102 -490 2313 -294 3475 98 583 295
1221 534 1730 89 190 118 248 198 395 275 506 629 1005 981 1385 376 405 747
727 1208 1050 392 275 914 551 1398 740 717 280 1400 423 2235 468 138 8 472
6 645 -3z"/>
<path d="M6870 11785 l0 -205 285 0 285 0 0 -795 0 -795 238 2 237 3 3 793 2
792 280 0 280 0 0 205 0 205 -805 0 -805 0 0 -205z"/>
<path d="M7072 7783 l3 -998 235 0 235 0 3 388 2 387 385 0 385 0 0 200 0 200
-385 0 -385 0 0 205 0 205 418 2 417 3 3 203 2 202 -660 0 -660 0 2 -997z"/>
<path d="M6982 4573 l3 -998 237 -3 238 -2 2 377 3 378 225 6 c198 6 237 9
322 32 249 66 409 209 463 417 23 87 24 263 1 349 -47 181 -168 311 -353 378
-149 54 -165 55 -671 60 l-472 5 2 -999z m853 592 c122 -32 175 -96 175 -213
0 -79 -16 -117 -68 -164 -64 -58 -127 -72 -317 -73 l-160 0 -3 233 -2 232 158
0 c110 0 176 -5 217 -15z"/>
</g>
</svg>
